<?xml version="1.0" encoding="UTF-8"?>
<svg height="15" viewBox="0 0 512 512" width="15" xmlns="http://www.w3.org/2000/svg">
	<g transform="matrix(1.0159994 0 0 1.0159994 950.95565 -63.35506)">
		<path d="m-821.53729 91.212502h50.6042v337.361328h-50.6042z" fill="#fff" stroke="#999" stroke-linecap="round" stroke-linejoin="round" stroke-width="2.2016"/>
		<path d="m-514.78328 451.2914-313.6449.63065c-25.64654 1.89196-46.2479 23.3342-46.2479 49.61139 0 27.5385 22.49333 50.24205 50.24204 50.03183h309.02011c-13.24371-12.61305-21.65243-30.27138-21.65243-50.03183 0-19.97066 8.82916-37.62899 22.28308-50.24204z" fill="#fff" stroke-width="1.05109"/>
		<path d="m60 2c-18.3 0-33.1 14.9-33.1 33.1 0 0-.4 183.4-.4 184.9 0 17.8 14.2 32.3 31.8 33v.1h171.1v-9.3c-13.2 0-23.8-10.7-23.8-23.8s10.7-23.8 23.8-23.8v-.2-194zm3.7 18.1h9.3v156.5h-9.3zm132.5 199.8c0 9.4 4 17.8 10.3 23.8h-147c-13.2.1-23.9-10.7-23.9-23.8 0-12.5 9.8-22.7 22-23.6l149.2-.3c-6.4 6-10.6 14.4-10.6 23.9z" fill="#3e78b3" transform="matrix(2 0 0 2 -936.5577 60.082934)"/>
		<path d="m-740.94543 148.06413h202.41679v103.08263h-202.41679z" fill="#fff"/>
	</g>
</svg>
