<?xml version="1.0" encoding="UTF-8"?>
<svg height="16" viewBox="0 0 512 512" width="16" xmlns="http://www.w3.org/2000/svg">
	<g transform="matrix(42.759167 0 0 42.759167 -43.077731 -42.364271)">
		<path d="m1.5801163 3.8760892c-.01611.005-.1531754.045995-.3045752.089995l-.2752832.080015-.0001367 3.6768115-.0001026 3.6766743.064395-.01398c.03545-.007.1804804-.04002.3222802-.07202.5071195-.1151.8788679-.158103 1.4934473-.171103.6185394-.0138.9667218.008 1.4714013.09003.3711696.0606.9209622.201098 1.2538818.320298l.0001026.0011c.2889197.103999.3009052.106998.2829052.078-.02579-.0417-.4757911-.421496-.663291-.559795-.8694991-.6413-1.9345381-1.018198-3.056997-1.0821974-.2824297-.017-.3813551-.031002-.4289551-.062002-.1367798-.0899-.1297802.088783-.1297802-3.116914 0-2.3458977-.00599-2.9449072-.029292-2.9349072zm10.8104877.01251-.000068 2.9381884c-.0001 2.9055971-.000607 2.9387081-.04741 3.015708-.06218.1020999-.172418.1450928-.371157.1450928-.37906 0-.9501.086227-1.3892.2097266-.8391087.236099-1.6744443.706487-2.3054537 1.298486l.0000342-.000889-.1875097.175889.3047119-.105308c.8016592-.276999 1.4760162-.397982 2.3437353-.421982.715379-.0193 1.260084.03188 1.921514.180879.167379.038.31228.06901.32228.06901.0099 0 .01791-1.6501015.01791-3.6668995v-3.6669006l-.216802-.069009c-.11924-.038-.256377-.075996-.304677-.085996z" fill="#3e78b3"/>
		<g fill="#fff" stroke="#666" stroke-width=".376811">
			<path d="m12.065522 1.9285718-.152223.015595c-1.200033.1226424-2.2453423.5301494-3.2089573 1.2513483-.3604746.2697091-.9056466.8152797-1.1766757 1.1773862l-.2122585.283627v3.549992.0001066 3.5499561l.3208212-.333823c1.1330899-1.178821 2.5817413-1.8681991 4.2527013-2.0236846l.176592-.016661v-3.7269746z"/>
			<path d="m2.036081 1.9285648.1522237.015596c1.2000323.122642 2.2453401.530149 3.2089559 1.2513478.3604736.2697091.9056457.8152797 1.1766772 1.1773862l.2122571.283627v3.549992.0001137 3.5499565l-.3208226-.333823c-1.1330873-1.178822-2.5817395-1.8681999-4.2527007-2.0236855l-.1765906-.0166606v-3.7269821z"/>
		</g>
	</g>
</svg>
